<svg width="512" height="768" viewBox="0 0 512 768" xmlns="http://www.w3.org/2000/svg" role="img" aria-label="Kimono girl illustration">
  <defs>
    <linearGradient id="bg" x1="0" x2="1" y1="0" y2="1">
      <stop offset="0%" stop-color="#fdf2f8"/>
      <stop offset="100%" stop-color="#ede9fe"/>
    </linearGradient>
    <linearGradient id="kimono" x1="0" x2="0" y1="0" y2="1">
      <stop offset="0%" stop-color="#f472b6"/>
      <stop offset="100%" stop-color="#ec4899"/>
    </linearGradient>
  </defs>
  <rect width="512" height="768" fill="url(#bg)"/>
  <circle cx="256" cy="210" r="90" fill="#fde68a"/>
  <path d="M166 200c10-54 44-88 90-88s80 34 90 88c-11-8-23-13-36-14-12-1-23 3-31 10-8-7-19-11-31-10-13 1-25 6-36 14z" fill="#111827"/>
  <ellipse cx="224" cy="220" rx="10" ry="12" fill="#111827"/>
  <ellipse cx="288" cy="220" rx="10" ry="12" fill="#111827"/>
  <path d="M218 258c12 10 23 14 38 14s26-4 38-14" stroke="#be123c" stroke-width="6" stroke-linecap="round" fill="none"/>
  <path d="M130 760l48-270 78-70 78 70 48 270z" fill="url(#kimono)"/>
  <path d="M256 422l-42 42 42 232 42-232z" fill="#fce7f3"/>
  <path d="M178 490l-72 80 40 50 54-80z" fill="#f9a8d4"/>
  <path d="M334 490l72 80-40 50-54-80z" fill="#f9a8d4"/>
  <rect x="234" y="452" width="44" height="248" rx="12" fill="#1f2937"/>
  <circle cx="256" cy="534" r="16" fill="#fbbf24"/>
  <circle cx="256" cy="610" r="16" fill="#fbbf24"/>
  <circle cx="256" cy="686" r="16" fill="#fbbf24"/>
  <path d="M200 120c18-26 40-38 56-38s38 12 56 38" stroke="#111827" stroke-width="16" stroke-linecap="round"/>
</svg>
